<svg width="40" height="41" fill="none" xmlns="http://www.w3.org/2000/svg"><path fill-rule="evenodd" clip-rule="evenodd" d="M12.226 1.906c-1.58.964-3.636 2.86-4.57 4.215-.933 1.354-3.033 3.868-4.667 5.587C.081 14.767-.909 18.66.933 19.798c.502.31.914 3.369.914 6.797 0 4.31.405 6.569 1.317 7.325.723.6 1.443 2.193 1.599 3.539.236 2.046.731 2.447 3.024 2.447 2.148 0 2.805-.447 3.035-2.057.279-1.967.667-2.056 8.933-2.056 8.377 0 8.669.07 9.51 2.285 1.319 3.466 6.398 2.808 6.398-.83 0-1.102.511-2.515 1.137-3.14.625-.625 1.422-3.894 1.77-7.266.349-3.372.906-7.414 1.236-8.983.508-2.414.13-3.348-2.456-6.065-1.682-1.766-3.822-4.319-4.755-5.673C28.52.205 18.437-1.88 12.227 1.906zm15.632 2.789c1.607.993 3.42 2.897 4.027 4.231.966 2.122.871 2.59-.757 3.73-1.399.98-1.862 2.316-1.862 5.366 0 4.061 0 4.061-9.14 4.061s-9.14 0-9.14-4.06c0-3.077-.46-4.385-1.899-5.392-1.802-1.262-1.825-1.474-.445-4.141.799-1.547 2.58-3.423 3.956-4.17 3.703-2.01 11.72-1.812 15.26.375zM8.212 15.625c1.358 2.538 1.171 5.004-.616 8.117-1.311 2.286-1.367 2.956-.344 4.187 1 1.206 3.297 1.466 12.953 1.466 10.655 0 11.825-.163 12.68-1.762.994-1.856.409-4.636-.975-4.636-.449 0-.816-1.595-.816-3.544 0-3.833 1.663-5.936 4.297-5.433 1.888.36 2.738 4.135 1.264 5.609-.546.546-.992 3.745-.992 7.109 0 4.735-.326 6.242-1.445 6.672-1.883.723-26.3.723-28.184 0-1.123-.431-1.446-1.949-1.446-6.801 0-3.436-.41-6.5-.914-6.81-1.026-.635-1.24-4.395-.304-5.332 1.215-1.216 3.917-.569 4.842 1.158zm22.882 10.114c0 .558-4.266.914-10.968.914s-10.968-.356-10.968-.914c0-.559 4.266-.914 10.968-.914s10.968.355 10.968.914zM8.7 36.707c.311.502-.1.913-.914.913-.813 0-1.224-.41-.914-.913.311-.503.722-.914.914-.914.192 0 .604.41.914.914zm24.678 0c.31.502-.077.913-.86.913-.784 0-1.425-.41-1.425-.913 0-.503.386-.914.86-.914.473 0 1.114.41 1.425.914z" fill="#5DCF35"/></svg>