<svg width="40" height="40" fill="none" xmlns="http://www.w3.org/2000/svg"><path fill-rule="evenodd" clip-rule="evenodd" d="M18.434.023c-1.936.22-3.106.454-4.511.903-3.134 1.002-5.86 2.682-8.186 5.048C2.618 9.144.788 12.879.105 17.466c-.14.94-.14 4.147 0 5.086.697 4.683 2.626 8.543 5.853 11.714 3.172 3.117 6.909 4.946 11.498 5.63.94.139 4.149.139 5.088 0 4.59-.684 8.326-2.513 11.498-5.63 3.227-3.171 5.156-7.03 5.853-11.714.14-.94.14-4.147 0-5.086-.697-4.683-2.626-8.542-5.853-11.714C30.934 2.698 27.272.873 22.843.171c-.73-.116-3.788-.218-4.409-.148zM22.662 3.3c3.586.61 6.731 2.229 9.279 4.775 2.566 2.566 4.177 5.71 4.789 9.346.195 1.166.195 4.012 0 5.178-.611 3.637-2.223 6.78-4.79 9.346-2.566 2.566-5.712 4.176-9.35 4.787-1.166.196-4.014.196-5.18 0-3.638-.61-6.784-2.221-9.35-4.787-2.567-2.565-4.178-5.71-4.79-9.346-.195-1.166-.195-4.012 0-5.178.612-3.636 2.223-6.78 4.79-9.346 2.826-2.826 6.168-4.41 10.374-4.918.63-.076 3.513.022 4.228.143zm-3.327 6.138a1.443 1.443 0 00-.78.81c-.104.25-.12.947-.12 5.224 0 5.253-.002 5.236.374 5.662.289.328 6.665 5.044 6.942 5.135 1.261.416 2.42-.959 1.832-2.173-.147-.303-.528-.616-3.092-2.538-2.925-2.193-2.925-2.193-2.927-6.624-.002-4.14-.011-4.451-.146-4.744a1.565 1.565 0 00-2.083-.752z" fill="#5DCF35"/></svg>