<svg width="40" height="40" fill="none" xmlns="http://www.w3.org/2000/svg"><path fill-rule="evenodd" clip-rule="evenodd" d="M5.57.062C3.235.427 1.245 2.002.43 4.13.088 5.019-.009 5.57 0 6.577c.014 1.52.49 2.855 1.437 4.025.254.313 2.242 2.336 4.418 4.496 4.209 4.178 4.324 4.276 5.593 4.783 1.093.436 2.483.556 3.65.315.716-.148.954-.26 1.223-.58.592-.704.152-1.835-.783-2.012-.136-.026-.522.014-.857.089a3.985 3.985 0 01-3.062-.556c-.216-.14-2.235-2.105-4.485-4.367C3.22 8.838 3.03 8.633 2.79 8.1c-.362-.802-.467-1.622-.308-2.396.166-.807.46-1.398.972-1.95.745-.804 1.592-1.221 2.663-1.312.702-.059 1.331.068 2.083.421.568.267.741.43 4.721 4.411 4.47 4.471 4.487 4.493 4.747 5.594.154.653.152 1.184-.01 1.915-.105.483-.112.649-.037.901.195.648.893 1.06 1.494.88.64-.191.87-.505 1.065-1.445.324-1.567.044-3.177-.808-4.654-.321-.555-.818-1.085-4.294-4.581-2.162-2.175-4.196-4.168-4.52-4.43C9.21.362 7.21-.196 5.57.061zM24.099 4.93c-.183.093-.401.28-.486.417-.204.33-1.815 6.33-1.815 6.76 0 .218.062.43.177.604.194.29.763.62 1.072.62.315 0 .855-.306 1.025-.58.206-.335 1.813-6.32 1.813-6.757 0-.884-.985-1.47-1.786-1.064zm6.305 2.974c-.13.081-1.301 1.22-2.604 2.532-2.489 2.505-2.623 2.678-2.513 3.227.139.693.765 1.143 1.452 1.044.352-.052.445-.134 2.826-2.502 1.354-1.346 2.516-2.55 2.583-2.676.158-.3.106-.969-.098-1.244-.368-.498-1.167-.682-1.646-.381zm3.099 6.244c-.018.018-1.377.39-3.02.828-1.643.438-3.075.86-3.183.938-.569.407-.731 1.199-.359 1.746.224.329.62.54 1.014.54.153 0 1.668-.374 3.368-.83 3.38-.909 3.49-.955 3.721-1.56a1.205 1.205 0 00-.585-1.534c-.276-.14-.863-.219-.956-.128zm-7.986 5.553c-.987.09-1.574.282-1.921.63-.467.466-.507 1.15-.096 1.64.404.479.822.568 1.65.352.593-.154 1.54-.15 2.076.009.983.291 1.013.317 5.402 4.691 3.965 3.95 4.205 4.207 4.492 4.776 1.693 3.363-1.772 6.94-5.221 5.39-.525-.236-.75-.445-4.701-4.376-2.282-2.27-4.256-4.293-4.385-4.494-.59-.916-.762-2.073-.474-3.209.208-.822.206-.982-.012-1.373-.241-.43-.754-.694-1.23-.633-.395.05-.816.337-.99.673-.245.473-.43 1.506-.43 2.394 0 1.388.343 2.53 1.1 3.663.359.535 7.653 7.915 8.566 8.665 2.111 1.735 4.99 1.987 7.389.646.801-.448 1.964-1.61 2.412-2.41 1.342-2.398 1.09-5.272-.646-7.383-.743-.903-8.215-8.274-8.72-8.601-1.293-.84-2.716-1.19-4.26-1.05zM8.554 22.667c-1.686.461-3.161.903-3.278.98-.241.161-.534.71-.534 1.001 0 .309.33.878.62 1.071.176.117.386.177.612.177.44 0 6.415-1.602 6.754-1.811.275-.17.58-.71.58-1.024 0-.309-.329-.878-.62-1.071-.44-.293-.81-.233-4.134.677zm4.323 2.788c-.366.172-4.97 4.836-5.035 5.1-.084.34.005.879.189 1.136.317.445 1.089.63 1.568.376.326-.173 4.87-4.766 4.964-5.017.19-.511-.015-1.145-.476-1.474-.304-.216-.885-.274-1.21-.121zm3.615 1.26c-.579.258-.61.334-1.535 3.769-.474 1.759-.862 3.339-.862 3.51 0 .909.94 1.492 1.762 1.094.195-.094.424-.283.508-.42.123-.2 1.098-3.662 1.78-6.32.154-.601.07-.978-.296-1.33-.425-.41-.886-.514-1.357-.303z" fill="#5DCF35"/></svg>