<svg width="52" height="36" fill="none" xmlns="http://www.w3.org/2000/svg"><path fill-rule="evenodd" clip-rule="evenodd" d="M6.81 1.2a2.59 2.59 0 00-.466.416C6.092 1.93 1 16.234 1 16.628c0 .502.237 1.02.6 1.312.36.29 4.534 2.136 4.831 2.137.101 0 .388-.08.637-.18.453-.178.453-.178 2.119.98.916.636 1.712 1.219 1.77 1.294.073.099.06.27-.044.598-.21.658-.186 1.676.056 2.265.41 1 1.355 1.72 2.262 1.723.416 0 .464.026.465.244.002.376.424 1.287.777 1.676a2.576 2.576 0 001.615.852c.512.058.512.058.665.665.284 1.126 1.309 2.039 2.35 2.091.402.02.465.057.513.293.14.701.277 1.002.675 1.49.591.727 1.236 1.025 2.088.968.845-.057 1.302-.313 1.998-1.118.574-.664.574-.664 1.292-.095.91.72 1.527.955 2.324.885 1.151-.103 2.227-1.016 2.557-2.171.158-.552.158-.552 1.1-.552.861 0 .986-.027 1.465-.32.8-.489 1.313-1.275 1.462-2.241.07-.457.07-.457.8-.517.471-.04.877-.145 1.143-.297.796-.457 1.418-1.36 1.546-2.246.06-.414.06-.414.734-.379.773.041 1.444-.23 2.069-.835.746-.723 1.11-2.132.82-3.165-.145-.517-.145-.517.217-.77.2-.138.818-.577 1.374-.974 1.012-.722 1.012-.722 1.533-.431.41.23.596.275.876.217.524-.108 4.415-1.837 4.75-2.109.326-.267.561-.806.561-1.29 0-.442-1.903-5.737-2.151-5.985-.446-.445-1.17-.086-1.169.58 0 .157.414 1.437.918 2.845.505 1.408.883 2.584.84 2.613-.14.095-3.799 1.67-3.878 1.67-.132-.002-5.049-13.902-4.952-14 .094-.095 3.875-1.746 3.903-1.705.009.014.446 1.237.97 2.719.985 2.78 1.195 3.18 1.671 3.18.3 0 .723-.447.723-.762 0-.376-2.029-5.935-2.27-6.22-.313-.37-.691-.563-1.102-.563-.217 0-1.22.379-2.587.975-1.86.813-2.282 1.038-2.526 1.345-.287.36-.45.904-.385 1.28.026.149-.205.283-1.136.665-1.729.708-2.109.758-3.704.487-.727-.124-1.456-.225-1.619-.225-.426 0-.705.347-.668.83.046.599.315.739 1.934 1.008 1.851.307 2.468.256 3.973-.33 1.593-.622 1.784-.689 1.822-.637.075.104 4.069 11.38 4.069 11.49 0 .066-.69.608-1.533 1.204-1.533 1.085-1.533 1.085-1.831.836a1051.16 1051.16 0 00-3.12-2.549c-2.33-1.9-2.873-2.297-3.124-2.287-1.933.083-2.89.037-3.625-.175-1.128-.325-2.594-1.173-3.466-2.004-1.227-1.17-1.347-1.26-1.743-1.32-.575-.085-.967.11-1.943.968-1.032.908-1.733 1.391-2.586 1.785-.498.23-.769.284-1.443.284-.878 0-1.333-.172-1.837-.698-.381-.397-.251-.627.82-1.45 1.776-1.365 3.469-2.928 5.518-5.096.518-.548 1.1-1.07 1.293-1.159.472-.217 1.153-.204 2.555.052 1.551.282 1.82.278 2.083-.032a.986.986 0 00.212-.544c0-.31-.381-.823-.611-.823-.073 0-.855-.126-1.738-.28-1.408-.246-1.683-.265-2.229-.156-.846.167-1.409.505-2.205 1.32-.672.69-.672.69-1.424.45-.89-.285-2.342-.447-5.074-.567-2.002-.087-2.002-.087-2.832-.475-.635-.296-.822-.43-.798-.573.066-.374-.098-.919-.384-1.279-.245-.307-.667-.532-2.527-1.345C7.714.94 7.327.848 6.811 1.201zm2.686 2.28c.994.43 1.847.821 1.896.87.107.11-4.828 14.001-4.972 13.997-.23-.007-3.879-1.676-3.877-1.774.007-.288 4.964-13.953 5.049-13.915l1.904.823zm3.943 3.304c.873.388.927.398 2.698.483 1.97.094 4.286.28 4.712.378.147.034.268.1.268.144 0 .205-2.477 2.409-4.002 3.562-1.066.805-1.369 1.28-1.369 2.144 0 .312.07.73.157.931.223.52.84 1.095 1.589 1.482.894.462 2.109.532 3.152.183 1.2-.403 2.46-1.194 3.598-2.261.296-.277.591-.54.657-.582.074-.049.355.162.733.55 2.022 2.076 4.742 3.187 7.376 3.014.905-.06.905-.06 3.894 2.375 1.747 1.424 3.065 2.573 3.172 2.767.287.52.25 1.36-.08 1.793-.46.604-1.133.79-1.723.477-.17-.09-1.077-.817-2.017-1.616-1.855-1.577-2.057-1.673-2.495-1.19-.239.264-.294.531-.179.863.034.096.693.712 1.465 1.369 1.192 1.014 1.42 1.255 1.514 1.602.285 1.05-.39 2.045-1.386 2.045-.464 0-.794-.218-2.375-1.564-1.398-1.19-1.66-1.34-2.057-1.171-.236.1-.458.644-.388.951.04.175.463.608 1.227 1.257 1.412 1.198 1.549 1.375 1.549 2.002 0 1.083-.77 1.798-1.724 1.6-.223-.046-.841-.488-1.775-1.269-1.163-.973-1.495-1.2-1.763-1.2-.593-.004-.922.81-.519 1.287.098.115.511.49.92.835.814.69 1.007 1.04.928 1.688-.072.593-.388 1.032-.9 1.248-.583.245-.93.155-1.728-.452-.653-.495-.653-.495-.324-1.023.424-.68.59-1.52.447-2.258-.147-.758-.319-1.078-.872-1.627-.518-.514-1.018-.735-1.661-.735-.378 0-.404-.02-.404-.302 0-.462-.46-1.379-.899-1.794-.445-.42-1.111-.706-1.647-.706-.34 0-.366-.024-.43-.4a2.877 2.877 0 00-.823-1.572c-.467-.465-.918-.69-1.573-.787-.437-.064-.483-.098-.542-.407-.258-1.353-1.36-2.33-2.626-2.33-1.026 0-1.555.352-2.65 1.768-.494.637-.494.637-1.512-.09l-1.953-1.392c-.935-.664-.935-.664 1.171-6.562 1.159-3.244 2.145-5.9 2.193-5.9.047-.002.486.175.976.392zm2.559 13.731c.36.373.484.939.308 1.404-.13.341-1.717 2.462-2.194 2.93-.476.468-1.445.265-1.74-.363-.17-.366-.178-.93-.016-1.248.23-.452 1.978-2.657 2.267-2.86.387-.272 1.043-.207 1.375.137zm2.843 2.682c.35.236.585.884.482 1.335-.068.298-.695 1.197-1.683 2.412-.754.926-1.148 1.121-1.726.855-.61-.282-.925-1.127-.642-1.722.16-.333 1.92-2.628 2.211-2.88.316-.275.95-.275 1.358 0zm2.702 2.632c.528.243.773.677.722 1.274-.038.442-.136.627-.767 1.452a39.84 39.84 0 01-1.216 1.515c-.457.525-.529.568-.945.568-.842 0-1.437-.916-1.123-1.73.21-.541 2.09-2.9 2.452-3.073.389-.187.485-.187.877-.006zm3.093 2.817c.362.206.583.672.583 1.229 0 .381-.089.55-.757 1.431-1.568 2.07-1.835 2.28-2.577 2.035-.719-.238-1.02-1.341-.551-2.015.504-.724 1.85-2.41 2.089-2.618.307-.267.81-.292 1.213-.062z" fill="#5DCF35" stroke="#5DCF35"/></svg>