<svg width="20" height="21" fill="none" xmlns="http://www.w3.org/2000/svg"><path d="M10 .5a10 10 0 100 20 10 10 0 000-20zm3.244 13.711c0 .389.156.7.4.733.245.034.523-.244.645-.666l.222.089a1.911 1.911 0 01.933 2.222 1.754 1.754 0 01-1.61 1.378c-.545-1.345-2.345.066-3.956-.245A2.132 2.132 0 018.4 16.4c1.322-.122 3.167-1.922 4.844-2.189zM8.89 13.022a2.045 2.045 0 002.022-1.766 1.544 1.544 0 01-.078 2.033 1.3 1.3 0 01-1.944-.267zm3.333-.844c.456.433 3.334-.067 3.911 1.21-1.055-.221-3.277.679-3.855-1.2l-.056-.01zm-1.41-5.622v.3c-.723-.856-1.479-1.19-1.79-.634-.31.556 1.111 1.234.845 2.09-.267.855-1.411.621-2.09 1.788-.677 1.167-.544 2.689 1.379 4.078a3.334 3.334 0 01-2.823-2.345c-.444-1.333-.1-2.51-.866-2.733-1.023-.311-2.134 1.078-2.134 2.289-1.4-1.4.056-3.178-1.333-4.645a8.767 8.767 0 0110.711-4.588 5.932 5.932 0 00-1.9 4.4z" fill="#BABABA"/></svg>