<svg width="1160" height="264" fill="none" xmlns="http://www.w3.org/2000/svg"><path d="M0 5a5 5 0 015-5h1150a5 5 0 015 5v259H0V5z" fill="url(#paint0_linear_4_187)"/><path d="M0 5a5 5 0 015-5h1150a5 5 0 015 5v259H0V5z" fill="#000" fill-opacity=".2"/><g filter="url(#filter0_d_4_187)"><path d="M0 136C563.5 288.5 560.5-27.5 1160 70.5V264H0V136z" fill="url(#paint1_linear_4_187)"/><path d="M0 136C563.5 288.5 560.5-27.5 1160 70.5V264H0V136z" fill="url(#paint2_linear_4_187)"/><path d="M0 136C563.5 288.5 560.5-27.5 1160 70.5V264H0V136z" fill="#000" fill-opacity=".2"/></g><defs><linearGradient id="paint0_linear_4_187" x1="0" y1="-63.848" x2="1171.15" y2="139.02" gradientUnits="userSpaceOnUse"><stop stop-color="#5DCF35"/><stop offset="1" stop-color="#9BFF9F"/></linearGradient><linearGradient id="paint1_linear_4_187" x1="0" y1="8.499" x2="1149.5" y2="263.999" gradientUnits="userSpaceOnUse"><stop stop-color="#8235CF"/><stop offset="1" stop-color="#6635CF"/></linearGradient><linearGradient id="paint2_linear_4_187" x1="0" y1="-.19" x2="1153.01" y2="247.661" gradientUnits="userSpaceOnUse"><stop stop-color="#5DCF35"/><stop offset="1" stop-color="#9BFF9F"/></linearGradient><filter id="filter0_d_4_187" x="-71" y="-19.739" width="1292" height="344.74" filterUnits="userSpaceOnUse" color-interpolation-filters="sRGB"><feFlood flood-opacity="0" result="BackgroundImageFix"/><feColorMatrix in="SourceAlpha" values="0 0 0 0 0 0 0 0 0 0 0 0 0 0 0 0 0 0 127 0" result="hardAlpha"/><feOffset dx="-5" dy="-5"/><feGaussianBlur stdDeviation="33"/><feComposite in2="hardAlpha" operator="out"/><feColorMatrix values="0 0 0 0 0 0 0 0 0 0 0 0 0 0 0 0 0 0 0.1 0"/><feBlend in2="BackgroundImageFix" result="effect1_dropShadow_4_187"/><feBlend in="SourceGraphic" in2="effect1_dropShadow_4_187" result="shape"/></filter></defs></svg>