<svg width="24" height="24" fill="none" xmlns="http://www.w3.org/2000/svg"><rect width="24" height="24" rx="5" fill="#EB722E"/><path d="M16.864 12.056c-.21-.427-.801-.788-1.587-.18-1.07.855-2.777.855-2.777.855s-1.707 0-2.777-.855c-.786-.608-1.377-.247-1.587.18-.374.75.045 1.118.996 1.725.816.525 1.93.72 2.65.795l-.6.6c-.853.848-1.676 1.666-2.238 2.236-.336.345-.336.892 0 1.215l.105.12a.87.87 0 001.228 0l2.223-2.235c.86.847 1.677 1.665 2.246 2.235a.87.87 0 001.227 0l.097-.12a.844.844 0 000-1.215l-2.23-2.236-.591-.607c.71-.068 1.811-.27 2.62-.788.95-.607 1.37-.975.995-1.725zM12.5 5.928a1.868 1.868 0 110 3.735 1.868 1.868 0 110-3.735zm0 5.663a3.786 3.786 0 003.788-3.796 3.8 3.8 0 00-1.11-2.683 3.784 3.784 0 00-5.356 0 3.8 3.8 0 00-1.11 2.683c0 2.1 1.692 3.796 3.788 3.796z" fill="#fff"/></svg>