<svg width="98" height="25" fill="none" xmlns="http://www.w3.org/2000/svg"><path d="M0 5a5 5 0 015-5h90.52c.9 0 1.342 1.096.694 1.72L85.278 12.25a1 1 0 00.03 1.468l10.726 9.535c.687.61.255 1.747-.664 1.747H5a5 5 0 01-5-5V5z" fill="#DF3737"/><path d="M16.5 6l1.46 4.491h4.722l-3.82 2.776 1.459 4.492-3.821-2.776-3.82 2.776 1.459-4.492-3.82-2.776h4.722L16.5 6zm13.816 8.276V17H28.6V8.9h3.66c.824 0 1.508.256 2.052.768.552.512.828 1.152.828 1.92 0 .76-.276 1.4-.828 1.92-.544.512-1.228.768-2.052.768h-1.944zm1.944-3.792h-1.944v2.22h1.944c.312 0 .572-.104.78-.312.216-.216.324-.484.324-.804 0-.32-.108-.584-.324-.792a1.058 1.058 0 00-.78-.312zM36.1 8.9h3.768c.832 0 1.516.256 2.052.768.552.512.828 1.152.828 1.92 0 .52-.136.992-.408 1.416a2.618 2.618 0 01-1.08.96L43.048 17H41.14l-1.608-2.724h-1.716V17H36.1V8.9zm3.768 1.584h-2.052v2.22h2.052c.32 0 .584-.104.792-.312.208-.216.312-.484.312-.804 0-.32-.104-.584-.312-.792a1.073 1.073 0 00-.792-.312zm4.752 5.46c-.808-.808-1.212-1.804-1.212-2.988s.404-2.18 1.212-2.988c.824-.808 1.836-1.212 3.036-1.212 1.208 0 2.216.404 3.024 1.212.808.808 1.212 1.804 1.212 2.988s-.404 2.18-1.212 2.988c-.8.8-1.808 1.2-3.024 1.2s-2.228-.4-3.036-1.2zm.576-3c0 .728.232 1.336.696 1.824.464.488 1.052.732 1.764.732.704 0 1.288-.244 1.752-.732.472-.496.708-1.104.708-1.824 0-.712-.236-1.316-.708-1.812-.464-.488-1.048-.732-1.752-.732-.712 0-1.3.244-1.764.732-.464.488-.696 1.092-.696 1.812zm9.4 4.056h-1.691V8.9h1.692l2.796 4.944L60.2 8.9h1.692V17H60.2v-4.92l-2.244 4.032h-1.128l-2.232-4.008V17zm9.512-1.056c-.808-.808-1.212-1.804-1.212-2.988s.404-2.18 1.212-2.988c.824-.808 1.836-1.212 3.036-1.212 1.208 0 2.216.404 3.024 1.212.808.808 1.212 1.804 1.212 2.988s-.404 2.18-1.212 2.988c-.8.8-1.808 1.2-3.024 1.2s-2.228-.4-3.036-1.2zm.576-3c0 .728.232 1.336.696 1.824.464.488 1.052.732 1.764.732.704 0 1.288-.244 1.752-.732.472-.496.708-1.104.708-1.824 0-.712-.236-1.316-.708-1.812-.464-.488-1.048-.732-1.752-.732-.712 0-1.3.244-1.764.732-.464.488-.696 1.092-.696 1.812z" fill="#fff"/></svg>