<svg width="20" height="20" fill="none" xmlns="http://www.w3.org/2000/svg"><path d="M10 0l1.6 2.468L14.068.865l.459 2.906 2.905-.462-.763 2.841 2.843.76-1.853 2.285 2.287 1.85-2.622 1.334L18.66 15l-2.938.152.156 2.938-2.746-1.056-1.053 2.748L10 17.7l-2.08 2.082-1.052-2.748-2.746 1.056.156-2.938L1.34 15l1.337-2.62-2.622-1.335 2.287-1.85L.49 6.91l2.843-.76-.763-2.841 2.905.462.459-2.906L8.4 2.468 10 0z" fill="#5DCF35"/><path d="M10 14l-.6-.548C7.4 11.37 6 10.055 6 8.411 6 7.096 7 6 8.2 6c.7 0 1.4.329 1.8.877.4-.548 1.1-.877 1.8-.877C13 6 14 6.986 14 8.411c0 1.644-1.4 2.959-3.4 5.041L10 14z" fill="#fff"/></svg>