<svg width="20" height="20" fill="none" xmlns="http://www.w3.org/2000/svg"><path d="M10 0l1.6 2.468L14.068.865l.459 2.906 2.905-.462-.763 2.841 2.843.76-1.853 2.285 2.287 1.85-2.622 1.334L18.66 15l-2.938.152.156 2.938-2.746-1.056-1.053 2.748L10 17.7l-2.08 2.082-1.052-2.748-2.746 1.056.156-2.938L1.34 15l1.337-2.62-2.622-1.335 2.287-1.85L.49 6.91l2.843-.76-.763-2.841 2.905.462.459-2.906L8.4 2.468 10 0z" fill="#357CCF"/><path d="M8 9.545l1.545 1.546L12.636 8" stroke="#fff" stroke-width="2" stroke-linecap="round"/></svg>