<svg width="16" height="16" fill="none" xmlns="http://www.w3.org/2000/svg"><path d="M8 0l1.663.175 1.59.517 1.45.836 1.242 1.119L14.928 4l.68 1.528.348 1.636v1.672l-.348 1.636-.68 1.528-.983 1.353-1.243 1.12-1.448.835-1.59.517L8 16l-1.663-.175-1.59-.517-1.45-.836-1.242-1.119L1.072 12l-.68-1.528-.348-1.636V7.164l.348-1.636L1.072 4l.983-1.353 1.243-1.12L4.746.693l1.59-.517L8 0z" fill="#858AFF"/><path d="M7.116 11v.375h1.768V8.884h2.491V7.116H8.884V4.625H7.116v2.491H4.625v1.768h2.491V11z" fill="#fff" stroke="#fff" stroke-width=".75"/></svg>