<svg width="24" height="24" fill="none" xmlns="http://www.w3.org/2000/svg"><rect width="24" height="24" rx="5" fill="#07F"/><path fill-rule="evenodd" clip-rule="evenodd" d="M19.623 7.694c.119-.391 0-.676-.525-.676h-1.745c-.44 0-.644.25-.763.516 0 0-.898 2.278-2.152 3.755-.406.427-.593.569-.813.569-.119 0-.271-.142-.271-.534V7.676c0-.462-.136-.676-.509-.676H10.1a.43.43 0 00-.44.427c0 .445.626.552.694 1.797v2.707c0 .587-.1.694-.322.694-.593 0-2.033-2.296-2.897-4.911C6.967 7.196 6.796 7 6.355 7H4.593C4.085 7 4 7.249 4 7.516c0 .48.593 2.9 2.762 6.103 1.44 2.188 3.49 3.363 5.338 3.363 1.118 0 1.254-.267 1.254-.712v-1.654c0-.534.101-.623.457-.623.254 0 .712.142 1.746 1.192C16.743 16.431 16.946 17 17.607 17h1.745c.509 0 .746-.267.61-.783-.152-.516-.728-1.263-1.474-2.153-.407-.498-1.017-1.05-1.203-1.316-.254-.356-.186-.499 0-.819-.017 0 2.118-3.167 2.338-4.236" fill="#fff"/></svg>