<svg width="24" height="24" fill="none" xmlns="http://www.w3.org/2000/svg"><rect width="24" height="24" rx="5" fill="#65BC54"/><path d="M5.003 20l1.014-3.974A8.374 8.374 0 015 12c0-4.418 3.358-8 7.5-8 4.142 0 7.5 3.582 7.5 8s-3.358 8-7.5 8a7.111 7.111 0 01-3.772-1.084L5.003 20zm4.79-11.754a.686.686 0 00-.278.08.98.98 0 00-.22.183c-.09.09-.141.169-.196.245a2.28 2.28 0 00-.424 1.342c.002.392.098.774.248 1.13.306.722.811 1.486 1.478 2.194.16.17.317.342.486.5a6.955 6.955 0 002.88 1.638l.427.07c.138.007.277-.004.416-.011.219-.012.432-.075.625-.185a3.59 3.59 0 00.288-.176s.032-.022.093-.072c.101-.08.164-.137.248-.23a.924.924 0 00.157-.242c.059-.13.117-.38.141-.586.018-.159.013-.245.01-.299a.273.273 0 00-.142-.212l-.436-.209s-.653-.303-1.051-.496a.356.356 0 00-.133-.033.34.34 0 00-.283.101v-.001c-.004 0-.054.045-.597.746a.264.264 0 01-.123.097.246.246 0 01-.152.007 1.013 1.013 0 01-.144-.053c-.093-.041-.125-.057-.189-.087l-.004-.001a4.48 4.48 0 01-1.177-.8c-.095-.088-.182-.184-.272-.277a4.989 4.989 0 01-.765-1.015l-.045-.076a.76.76 0 01-.076-.164c-.028-.117.046-.212.046-.212s.182-.212.267-.328a3.57 3.57 0 00.197-.298c.088-.152.116-.308.07-.429a69.079 69.079 0 00-.651-1.633c-.045-.107-.176-.184-.295-.199a2.396 2.396 0 00-.122-.013 2.38 2.38 0 00-.302.004z" fill="#fff"/></svg>